<?xml version="1.0" encoding="utf-8"?>
<!-- Generator: Adobe Illustrator 22.1.0, SVG Export Plug-In . SVG Version: 6.00 Build 0)  -->
<svg version="1.1" id="Livello_1" xmlns="http://www.w3.org/2000/svg" xmlns:xlink="http://www.w3.org/1999/xlink" x="0px" y="0px"
	 viewBox="0 0 610 200" style="enable-background:new 0 0 610 200;" xml:space="preserve">
<style type="text/css">
	.st0{fill:#FFFFFF;}
	.st1{fill:#E30613;}
</style>
<g>
	<g>
		<g>
			<path class="st0" d="M226.6,80.1c4.3,0,8.9-0.4,13.1-2.8c4.6-2.6,7.4-7,8.8-13l5.7-26.7c1.2-5.8,1.6-11.6-3.2-14.9
				c-4-2.7-10.2-2.8-15.3-2.8h-15.3l-12.8,60.2H226.6z M232.2,30.7c6.9,0.2,9.1,0.6,7.7,7.6L235.7,58c-1.5,8-2.4,11.9-11.7,11.2
				L232.2,30.7z"/>
		</g>
		<g>
			<path class="st0" d="M275.9,65.3c-0.7,2.9-2.3,6.8-6.1,6.8c-3.1,0-4.3-2-3.7-4.8c0.6-3.1,2.4-4.7,4.2-5.8
				c1.9-1.2,4.3-1.9,7.1-3.3L275.9,65.3z M274.1,80.1h12.5c-0.2-1.6-0.3-3.3,0-5l5.9-27.6c2.1-9.9-1.7-13.7-14.3-13.7
				c-10.3,0-18.7,4.3-20.6,15.5h12.8c1-3.8,1.7-7,6.4-7c2.6,0,3.6,2.2,3,4.7c-1,4.8-6.7,5.4-12.6,7.2c-6,1.8-12.2,5.1-14.4,15.3
				c-1.5,7.1,1.9,12,9.2,12c5.1,0,8.2-1.9,12.2-5.5L274.1,80.1z"/>
		</g>
		<g>
			<path class="st0" d="M302.3,44.4l-5.5,26c-1.5,6.9,1.6,10.4,8.5,10.4c2.8,0,5.5-0.3,8.3-0.7l1.9-9c-1.4,0-1.8-0.1-3.3,0.2
				c-1.7,0-2.7-0.6-2.1-3.1l5-23.7h6.1l2-9.2h-6.1l2.7-12.9H307l-2.7,12.9h-5.1l-2,9.2h5.1V44.4z"/>
		</g>
		<g>
			<path class="st0" d="M342.8,65.3c-0.7,2.9-2.3,6.8-6.1,6.8c-3.1,0-4.3-2-3.7-4.8c0.6-3.1,2.4-4.7,4.2-5.8
				c1.9-1.2,4.3-1.9,7.1-3.3L342.8,65.3z M341,80.1h12.5c-0.2-1.6-0.3-3.3,0-5l5.9-27.6c2.1-9.9-1.7-13.7-14.3-13.7
				c-10.3,0-18.7,4.3-20.6,15.5h12.8c1-3.8,1.7-7,6.4-7c2.6,0,3.6,2.2,3,4.7c-1,4.8-6.7,5.4-12.6,7.2c-6,1.8-12.2,5.1-14.4,15.3
				c-1.5,7.1,1.9,12,9.2,12c5.1,0,8.2-1.9,12.2-5.5L341,80.1z"/>
		</g>
	</g>
	<g>
		<g>
			<polygon class="st1" points="232.9,175 270.6,87.5 250.1,87.5 226.5,148.8 226.3,148.8 228.8,87.5 208.3,87.5 208.7,175 			"/>
		</g>
		<g>
			<path class="st1" d="M261.6,156.8c-3.2,14.9,6.6,20.3,20,20.3c14.1,0,24.5-5.5,28.6-20.3l5.7-26.6c3.1-14.7-3.2-22.4-19.5-22.4
				c-14.3,0-25.5,5.6-29,22.4L261.6,156.8z M286.1,128.8c0.9-4.2,3-7.6,7.3-7.6s5,3.4,4.1,7.6l-6.2,29.2c-1.1,3.7-3.1,5.7-6.9,5.7
				s-4.9-2-4.5-5.7L286.1,128.8z"/>
		</g>
		<g>
			<polygon class="st1" points="336.4,175 355,87.5 336.4,87.5 317.8,175 			"/>
		</g>
		<g>
			<polygon class="st1" points="368.4,175 387,87.5 368.4,87.5 349.8,175 			"/>
		</g>
		<g>
			<path class="st1" d="M406.7,133.1l0.9-4.3c1-4.5,3.1-8.7,8.4-8.7c4.8,0,5.4,4.3,4.9,6.6l-1.4,6.4H406.7z M435.5,145.3l4-18.7
				c3-14.1-8-19-21-18.9c-14.4,0.1-26.2,5.6-29.7,22.4l-5.7,26.6c-3.2,14.9,7.3,20.4,20.7,20.3c16.2-0.2,26.9-7.9,29.5-24.7h-18.4
				c-1.5,5.5-2.1,11.7-8.9,11.3c-4-0.2-5-3.3-4.3-6.9l2.4-11.4L435.5,145.3L435.5,145.3z"/>
		</g>
		<g>
			<path class="st1" d="M466,109.6h-18.7l0.4,59.2c0.1,3,0.4,8-0.3,11.1c-0.5,2.6-4.4,3.6-6.3,3.3c-1.1-0.2-2.4-0.4-3.5-0.5
				l-2.9,13.8c1.9,0,4,0.6,7.2,0.6c20.3,0,23.1-13.8,31.5-31.5l23.7-55.9H479l-15.4,42.2h-0.2L466,109.6z"/>
		</g>
	</g>
</g>
<g>
	<g>
		<path class="st0" d="M505.2,121l64.4-88h34.1l-19.3,90.9h12.9l-5.3,24.4h-12.9l-5.9,27.9h-31l5.9-27.9h-48.8L505.2,121z
			 M553.4,123.9l10.1-47.4h-0.4l-33.9,47.4H553.4z"/>
	</g>
</g>
<g>
	<g id="Icona_quadrata_1_">
		<g>
			<rect x="14.8" y="23.4" class="st0" width="158.3" height="158.7"/>
			<path class="st1" d="M177.1,186.1H10.8V19.4h166.3V186.1z M18.8,178.1h150.3V27.4H18.8V178.1z"/>
		</g>
		<g>
			<g>
				<g>
					<path class="st1" d="M97.1,42.7c0,0-2.1,3.4-3,5.5c-0.9,2.1-1.6,4.2-1.6,4.2s13.3-0.6,30.7,6.1s24.4,16,24.4,16
						s-5.7-15.7-24.4-25.1C108.3,41.9,97.1,42.7,97.1,42.7z"/>
				</g>
				<g>
					<path class="st1" d="M90.7,59c0,0-0.9,4-1.2,8.8c-0.3,4.8,0.1,7.2,0.1,7.2s13.8-2.2,35.9,8.1s28.8,24.5,28.8,24.5
						s0.6-6.2-0.3-12.2c-0.6-4.5-0.9-5.3-0.9-5.3s-7.9-12.9-27.1-22.6C107.3,57.9,90.7,59,90.7,59z"/>
				</g>
				<g>
					<path class="st1" d="M90.2,81.6c0,0,0.9,6.7,3,11.2s3.3,6.6,3.3,6.6s13.3-0.6,29,6.7c15.7,7.3,23.3,22.3,23.3,22.3
						s1.7-3.7,2.7-6.9c1.1-3.1,1.7-6.3,1.7-6.3s-7.6-13.9-25.5-23.6C109.8,81.8,90.2,81.6,90.2,81.6z"/>
				</g>
			</g>
			<g>
				<g>
					<path class="st1" d="M40.8,130.2c0,0,4,0.1,6.3-0.2s4.5-0.7,4.5-0.7s-7.2-11.2-10-29.6S43.5,71,43.5,71s-11,12.3-9.8,33.3
						C34.6,120.9,40.8,130.2,40.8,130.2z"/>
				</g>
				<g>
					<path class="st1" d="M58.2,127.7c0,0,4-1.2,8.2-3.4c4.3-2.1,6.1-3.7,6.1-3.7s-8.8-10.8-11-35.1c-2-24.4,6.7-37.7,6.7-37.7
						s-5.8,3.1-9.9,5.8c-3.7,2.5-4.2,3.5-4.2,3.5s-7.4,14.1-6.2,35.6C49,113.8,58.2,127.7,58.2,127.7z"/>
				</g>
				<g>
					<path class="st1" d="M78,116.7c0,0,5.4-4.1,8.2-8.2c2.8-4,4-6.1,4-6.1S83,91.2,81.5,73.9S89,42.6,89,42.6s-4,0.6-7.2,1.2
						c-3.3,0.7-6.2,1.5-6.2,1.5s-8.3,13.5-7.7,33.9C68.4,99.6,78,116.7,78,116.7z"/>
				</g>
			</g>
			<g>
				<g>
					<path class="st1" d="M145.6,134.5c0,0-2.2-3.7-3.6-5.5c-1.4-1.8-2.9-3.5-2.9-3.5s-5.9,11.9-20.2,23.9
						c-14.3,11.9-29.6,13.9-29.6,13.9s20.2,2.4,37.6-9.4C140.6,144.4,145.6,134.5,145.6,134.5z"/>
				</g>
				<g>
					<path class="st1" d="M134.2,120.7c0,0-3.1-2.8-7.1-5.3c-4-2.6-6.4-3.4-6.4-3.4s-4.7,13.1-24.5,27.5C76.4,153.9,60,153,60,153
						s5.8,3.9,10.4,5.6c4.2,1.6,5.4,2,5.4,2s15.9-1,33.8-13C127.1,135.8,134.2,120.7,134.2,120.7z"/>
				</g>
				<g>
					<path class="st1" d="M114.7,109.4c0,0-6.3-2.5-11.3-2.8c-4.9-0.4-7.3-0.3-7.3-0.3s-5.9,11.9-20,22.1
						c-14,10.2-31.5,9.7-31.5,9.7s2.8,3.7,5,6.1c2.2,2.4,4.4,4.3,4.4,4.3s16.4-0.1,33.7-11.1C104.9,126.4,114.7,109.4,114.7,109.4z"
						/>
				</g>
			</g>
		</g>
	</g>
</g>
</svg>
